<?xml version="1.0" encoding="UTF-8" standalone="no"?>
<svg width="801px" height="190px" viewBox="0 0 801 190" version="1.1" xmlns="http://www.w3.org/2000/svg" xmlns:xlink="http://www.w3.org/1999/xlink">
    <!-- Generator: Sketch 3.8.2 (29753) - http://www.bohemiancoding.com/sketch -->
    <title>slice</title>
    <desc>Created with Sketch.</desc>
    <defs></defs>
    <g id="Page-1" stroke="none" stroke-width="1" fill="none" fill-rule="evenodd">
        <g id="logo-subheader" fill="#FFFFFF">
            <path d="M801,119 L799,119 L799,82.442 L756,43.352 L713,82.442 L713,119 L711,119 L711,41.558 L756,0.648 L801,41.558 L801,119 L801,119 Z M757.486,42 L799,79.739 L799,42.442 L778,23.352 L757.486,42 L757.486,42 Z M713,42.442 L713,79.739 L754.514,42 L734,23.352 L713,42.442 L713,42.442 Z M757,4.261 L757,39.739 L776.514,22 L757,4.261 L757,4.261 Z M735.486,22 L755,39.739 L755,4.261 L735.486,22 L735.486,22 Z" id="Shape"></path>
            <path d="M669.178,120.078 L627.026,84 L585,84 L585,120 L583,120 L583,0.936 L670,1.089 L670,42.423 L628.534,82.659 L670.478,118.559 L669.178,120.078 L669.178,120.078 Z M586.501,82 L624.689,82 L604.581,64.79 L586.501,82 L586.501,82 Z M606.037,63.403 L627.009,81.352 L668,41.578 L668,4.419 L606.037,63.403 L606.037,63.403 Z M585,48.029 L585,80.667 L603.054,63.481 L585,48.029 L585,48.029 Z M585,45.396 L604.51,62.095 L666.504,3.083 L585,2.939 L585,45.396 L585,45.396 Z" id="Shape"></path>
            <path d="M509,120 L507,120 L507,42.04 L461.394,1 L554.607,1 L509,42.04 L509,120 L509,120 Z M509,3 L509,39.35 L549.394,3 L509,3 L509,3 Z M466.606,3 L507,39.35 L507,3 L466.606,3 L466.606,3 Z" id="Shape"></path>
            <path d="M437,120 L394.607,120 L352,80.437 L352,40.361 L394.608,1 L437,1 L437,3 L395.392,3 L386,11.676 L386,109.279 L395.392,118.001 L437,118.001 L437,120 L437,120 Z M354.648,80.166 L384,107.421 L384,62.281 L354.648,80.166 L354.648,80.166 Z M354,42.588 L354,78.22 L383.084,60.495 L354,42.588 L354,42.588 Z M354.647,40.638 L384,58.711 L384,13.524 L354.647,40.638 L354.647,40.638 Z" id="Shape"></path>
            <path d="M332.591,120 L240,120 L240,1 L332.607,1 L287.791,41.317 L309.588,60.249 L287.784,79.348 L332.591,120 L332.591,120 Z M243.659,118 L327.409,118 L286.27,80.675 L243.659,118 L243.659,118 Z M242,4.193 L242,116.795 L284.779,79.322 L263.757,60.249 L284.772,41.343 L242,4.193 L242,4.193 Z M266.739,60.255 L286.293,77.995 L306.545,60.255 L286.293,42.665 L266.739,60.255 L266.739,60.255 Z M243.677,3 L286.27,39.995 L327.394,3 L243.677,3 L243.677,3 Z" id="Shape"></path>
            <path d="M126,120 L124,120 L124,1 L210,1 L210,48.333 L168.37,84 L126,84 L126,120 L126,120 Z M127.478,82 L167.63,82 L208,47.413 L208,4.354 L127.478,82 L127.478,82 Z M126,3 L126,80.646 L206.521,3 L126,3 L126,3 Z" id="Shape"></path>
            <path d="M43.571,120.028 L0.451,76.875 L1.865,75.461 L43.569,117.196 L63.791,96.882 L0.688,43.036 L43.529,0.001 L86.65,43.154 L85.235,44.568 L43.531,2.833 L23.31,23.147 L86.413,76.993 L43.571,120.028 L43.571,120.028 Z M45,78.219 L65.206,95.461 L83.472,77.112 L45,44.285 L45,78.219 L45,78.219 Z M3.629,42.917 L43,76.512 L43,42.578 L21.895,24.568 L3.629,42.917 L3.629,42.917 Z" id="Shape"></path>
            <g id="Lines" transform="translate(2.000000, 178.000000)">
                <rect id="Rectangle-path" x="0" y="1" width="150.333" height="2"></rect>
                <rect id="Rectangle-path" x="647.75" y="0.916" width="150.333" height="2"></rect>
            </g>
            <g id="THE-WOMEN'S-HACKTHON" transform="translate(172.000000, 169.000000)">
                <path d="M10.835,0.345 C10.925,0.436 10.97,0.54 10.97,0.66 C10.97,0.98 10.809,1.14 10.49,1.14 L6.14,1.14 L6.14,19.95 C6.14,20.09 6.09,20.205 5.99,20.295 C5.889,20.385 5.78,20.43 5.66,20.43 C5.34,20.43 5.18,20.27 5.18,19.951 L5.18,1.141 L0.8,1.141 C0.68,1.141 0.575,1.095 0.485,1.005 C0.395,0.915 0.35,0.801 0.35,0.66 C0.35,0.54 0.395,0.435 0.485,0.345 C0.575,0.255 0.68,0.21 0.8,0.21 L10.49,0.21 C10.63,0.21 10.745,0.255 10.835,0.345 L10.835,0.345 Z" id="Shape"></path>
                <path d="M32.03,0.24 C32.17,0.24 32.285,0.285 32.375,0.375 C32.465,0.465 32.51,0.57 32.51,0.689 L32.51,19.98 C32.51,20.3 32.35,20.459 32.03,20.459 C31.71,20.459 31.55,20.3 31.55,19.98 L31.55,10.83 L25.43,10.83 L25.43,19.98 C25.43,20.3 25.27,20.459 24.95,20.459 C24.63,20.459 24.47,20.3 24.47,19.98 L24.47,0.689 C24.47,0.57 24.515,0.464 24.605,0.375 C24.695,0.285 24.81,0.24 24.95,0.24 C25.09,0.24 25.205,0.285 25.295,0.375 C25.385,0.465 25.43,0.57 25.43,0.689 L25.43,9.87 L31.55,9.87 L31.55,0.689 C31.55,0.57 31.595,0.464 31.685,0.375 C31.775,0.285 31.89,0.24 32.03,0.24 L32.03,0.24 Z" id="Shape"></path>
                <path d="M47.629,10.8 L47.629,19.529 L53.479,19.529 C53.619,19.529 53.734,19.575 53.824,19.665 C53.914,19.755 53.959,19.859 53.959,19.98 C53.959,20.3 53.799,20.459 53.479,20.459 L47.179,20.459 C46.859,20.459 46.699,20.3 46.699,19.98 L46.699,0.689 C46.699,0.57 46.744,0.464 46.834,0.375 C46.924,0.285 47.039,0.24 47.179,0.24 L53.479,0.24 C53.619,0.24 53.734,0.285 53.824,0.375 C53.914,0.465 53.959,0.57 53.959,0.689 C53.959,1.009 53.799,1.169 53.479,1.169 L47.629,1.169 L47.629,9.869 L53.479,9.869 C53.799,9.869 53.959,10.029 53.959,10.348 C53.959,10.468 53.914,10.574 53.824,10.663 C53.734,10.752 53.618,10.798 53.479,10.798 L47.629,10.798 L47.629,10.8 Z" id="Shape"></path>
                <path d="M99.289,20.43 C99.029,20.43 98.879,20.311 98.839,20.071 L95.029,2.881 L91.249,20.071 C91.189,20.311 91.029,20.43 90.769,20.43 C90.529,20.43 90.379,20.311 90.319,20.071 L86.059,0.78 C86.019,0.661 86.039,0.546 86.119,0.436 C86.199,0.326 86.299,0.25 86.419,0.21 C86.739,0.17 86.929,0.29 86.989,0.57 L90.769,17.759 L94.579,0.57 C94.619,0.33 94.769,0.21 95.029,0.21 C95.289,0.21 95.449,0.33 95.509,0.57 L99.289,17.759 L103.069,0.57 C103.109,0.45 103.184,0.355 103.294,0.285 C103.404,0.215 103.519,0.19 103.639,0.21 C103.779,0.25 103.884,0.325 103.954,0.436 C104.024,0.545 104.039,0.661 103.999,0.78 L99.739,20.071 C99.699,20.311 99.549,20.43 99.289,20.43 L99.289,20.43 Z" id="Shape"></path>
                <path d="M121.969,20.46 C121.489,20.46 120.994,20.391 120.484,20.25 C119.974,20.11 119.509,19.84 119.089,19.439 C118.669,19.04 118.329,18.495 118.069,17.804 C117.809,17.115 117.679,16.21 117.679,15.089 L117.679,5.579 C117.679,3.859 118.029,2.539 118.729,1.619 C119.469,0.699 120.549,0.239 121.969,0.239 C123.409,0.239 124.489,0.699 125.209,1.619 C125.929,2.518 126.289,3.839 126.289,5.579 L126.289,15.089 C126.289,16.21 126.159,17.114 125.899,17.804 C125.639,18.494 125.299,19.039 124.879,19.439 C124.459,19.839 123.994,20.11 123.484,20.25 C122.974,20.391 122.469,20.46 121.969,20.46 L121.969,20.46 Z M121.969,1.17 C120.829,1.17 119.999,1.52 119.479,2.22 C118.898,2.96 118.609,4.08 118.609,5.58 L118.609,15.09 C118.609,16.611 118.899,17.74 119.479,18.481 C120.019,19.18 120.849,19.53 121.969,19.53 C123.069,19.53 123.909,19.18 124.489,18.481 C125.049,17.781 125.329,16.651 125.329,15.09 L125.329,5.58 C125.329,4.04 125.049,2.92 124.489,2.22 C123.929,1.52 123.089,1.17 121.969,1.17 L121.969,1.17 Z" id="Shape"></path>
                <path d="M151.518,20.46 C151.198,20.46 151.038,20.301 151.038,19.981 L151.038,4.081 L146.448,20.131 C146.368,20.351 146.208,20.461 145.968,20.461 C145.748,20.461 145.598,20.351 145.518,20.131 L140.928,4.081 L140.928,19.981 C140.928,20.301 140.768,20.46 140.448,20.46 C140.128,20.46 139.968,20.301 139.968,19.981 L139.968,0.69 C139.968,0.43 140.108,0.281 140.388,0.241 C140.648,0.201 140.818,0.311 140.898,0.571 L145.968,18.27 L151.068,0.571 C151.148,0.311 151.318,0.201 151.578,0.241 C151.858,0.281 151.998,0.43 151.998,0.69 L151.998,19.981 C151.998,20.121 151.948,20.235 151.848,20.326 C151.748,20.415 151.638,20.46 151.518,20.46 L151.518,20.46 Z" id="Shape"></path>
                <path d="M167.148,10.8 L167.148,19.529 L172.998,19.529 C173.138,19.529 173.253,19.575 173.343,19.665 C173.433,19.755 173.478,19.859 173.478,19.98 C173.478,20.3 173.318,20.459 172.998,20.459 L166.698,20.459 C166.378,20.459 166.218,20.3 166.218,19.98 L166.218,0.689 C166.218,0.57 166.263,0.464 166.353,0.375 C166.443,0.285 166.558,0.24 166.698,0.24 L172.998,0.24 C173.138,0.24 173.253,0.285 173.343,0.375 C173.433,0.465 173.478,0.57 173.478,0.689 C173.478,1.009 173.318,1.169 172.998,1.169 L167.148,1.169 L167.148,9.869 L172.998,9.869 C173.318,9.869 173.478,10.029 173.478,10.348 C173.478,10.468 173.433,10.574 173.343,10.663 C173.253,10.752 173.137,10.798 172.998,10.798 L167.148,10.798 L167.148,10.8 Z" id="Shape"></path>
                <path d="M195.738,20.46 C195.518,20.46 195.378,20.36 195.318,20.16 L188.448,3.15 L188.448,19.98 C188.448,20.3 188.288,20.459 187.968,20.459 C187.648,20.459 187.488,20.3 187.488,19.98 L187.488,0.689 C187.488,0.429 187.618,0.28 187.878,0.24 C188.138,0.2 188.318,0.3 188.418,0.54 L195.258,17.55 L195.258,0.69 C195.258,0.571 195.303,0.465 195.393,0.376 C195.483,0.287 195.598,0.241 195.738,0.241 C195.878,0.241 195.993,0.286 196.083,0.376 C196.173,0.466 196.218,0.571 196.218,0.69 L196.218,19.981 C196.218,20.241 196.088,20.401 195.828,20.46 L195.738,20.46 L195.738,20.46 Z" id="Shape"></path>
                <path d="M211.188,4.0445 L211.188,3.0445 L211.188,2.0445 L211.188,0.689 C211.188,0.37 211.028,0.21 210.708,0.21 C210.588,0.21 210.483,0.255 210.393,0.344 C210.303,0.435 210.258,0.55 210.258,0.689 L210.258,2.0445 L210.258,3.0445 L210.258,4.0445 L210.258,5.4 C210.258,5.519 210.303,5.624 210.393,5.714 C210.483,5.804 210.588,5.849 210.708,5.849 C210.848,5.849 210.963,5.803 211.053,5.714 C211.143,5.625 211.188,5.519 211.188,5.4 L211.188,4.0445 Z" id="Combined-Shape"></path>
                <path d="M229.037,20.43 C227.598,20.43 226.517,19.971 225.797,19.05 C225.077,18.151 224.717,16.83 224.717,15.09 C224.717,14.771 224.877,14.61 225.197,14.61 C225.317,14.61 225.422,14.655 225.512,14.746 C225.602,14.836 225.647,14.951 225.647,15.091 C225.647,16.071 225.756,16.851 225.977,17.431 C226.197,18.011 226.472,18.456 226.802,18.767 C227.132,19.077 227.496,19.277 227.897,19.367 C228.296,19.457 228.677,19.502 229.037,19.502 C230.117,19.502 230.952,19.127 231.543,18.377 C232.132,17.627 232.428,16.582 232.428,15.242 C232.428,14.521 232.303,13.917 232.053,13.427 C231.803,12.938 231.502,12.537 231.153,12.227 C230.803,11.917 230.438,11.672 230.057,11.493 C229.678,11.313 229.368,11.163 229.127,11.043 L228.617,10.803 C228.317,10.683 227.947,10.508 227.508,10.279 C227.068,10.049 226.643,9.728 226.233,9.318 C225.823,8.909 225.468,8.404 225.168,7.803 C224.868,7.203 224.718,6.464 224.718,5.583 C224.718,4.063 225.068,2.813 225.768,1.833 C226.547,0.753 227.637,0.213 229.038,0.213 C230.478,0.213 231.568,0.673 232.308,1.593 C233.029,2.493 233.388,3.823 233.388,5.583 C233.388,5.703 233.343,5.813 233.253,5.913 C233.163,6.013 233.048,6.063 232.908,6.063 C232.768,6.063 232.653,6.012 232.563,5.913 C232.473,5.814 232.428,5.703 232.428,5.583 C232.428,4.063 232.137,2.933 231.557,2.192 C231.018,1.493 230.178,1.143 229.037,1.143 C227.976,1.143 227.147,1.563 226.547,2.403 C225.947,3.223 225.648,4.283 225.648,5.583 C225.648,6.303 225.768,6.913 226.008,7.413 C226.248,7.913 226.542,8.328 226.893,8.657 C227.243,8.987 227.608,9.253 227.988,9.453 C228.368,9.653 228.708,9.813 229.009,9.932 L229.488,10.143 C229.748,10.262 230.098,10.432 230.538,10.653 C230.977,10.873 231.408,11.177 231.828,11.567 C232.249,11.958 232.612,12.448 232.923,13.038 C233.234,13.628 233.388,14.363 233.388,15.243 C233.388,15.983 233.293,16.663 233.104,17.282 C232.914,17.903 232.648,18.442 232.308,18.903 C231.527,19.92 230.438,20.43 229.037,20.43 L229.037,20.43 Z" id="Shape"></path>
                <path d="M272.957,0.24 C273.097,0.24 273.212,0.285 273.303,0.375 C273.393,0.465 273.438,0.57 273.438,0.689 L273.438,19.98 C273.438,20.3 273.278,20.459 272.958,20.459 C272.638,20.459 272.478,20.3 272.478,19.98 L272.478,10.83 L266.359,10.83 L266.359,19.98 C266.359,20.3 266.199,20.459 265.879,20.459 C265.559,20.459 265.399,20.3 265.399,19.98 L265.399,0.689 C265.399,0.57 265.444,0.464 265.535,0.375 C265.625,0.285 265.739,0.24 265.88,0.24 C266.02,0.24 266.136,0.285 266.226,0.375 C266.316,0.465 266.361,0.57 266.361,0.689 L266.361,9.87 L272.48,9.87 L272.48,0.689 C272.48,0.57 272.525,0.464 272.616,0.375 C272.702,0.285 272.816,0.24 272.957,0.24 L272.957,0.24 Z" id="Shape"></path>
                <path d="M297.557,19.891 C297.597,20.01 297.577,20.125 297.497,20.235 C297.416,20.346 297.316,20.421 297.197,20.461 L297.076,20.461 C296.837,20.461 296.687,20.341 296.627,20.101 L295.277,14.281 L289.966,14.281 L288.616,20.101 C288.575,20.221 288.501,20.322 288.391,20.402 C288.28,20.481 288.165,20.502 288.045,20.462 C287.904,20.422 287.8,20.348 287.731,20.236 C287.661,20.127 287.645,20.011 287.686,19.892 L292.155,0.601 C292.216,0.361 292.366,0.242 292.606,0.242 C292.866,0.242 293.026,0.361 293.085,0.601 L297.557,19.891 L297.557,19.891 Z M295.066,13.35 L292.607,2.79 L290.176,13.35 L295.066,13.35 L295.066,13.35 Z" id="Shape"></path>
                <path d="M315.586,20.46 C315.107,20.46 314.611,20.391 314.102,20.25 C313.592,20.11 313.127,19.84 312.707,19.439 C312.287,19.04 311.946,18.495 311.686,17.804 C311.425,17.115 311.296,16.21 311.296,15.089 L311.296,5.579 C311.296,4.479 311.425,3.579 311.686,2.879 C311.946,2.179 312.287,1.634 312.707,1.244 C313.127,0.854 313.592,0.589 314.102,0.449 C314.612,0.309 315.107,0.239 315.586,0.239 C316.086,0.239 316.592,0.309 317.102,0.449 C317.612,0.589 318.077,0.854 318.497,1.244 C318.917,1.634 319.257,2.179 319.518,2.879 C319.778,3.579 319.908,4.48 319.908,5.579 C319.908,5.899 319.748,6.059 319.429,6.059 C319.109,6.059 318.95,5.899 318.95,5.579 C318.95,4.079 318.659,2.959 318.079,2.219 C317.559,1.519 316.729,1.169 315.589,1.169 C314.489,1.169 313.659,1.519 313.1,2.219 C312.519,2.959 312.23,4.079 312.23,5.579 L312.23,15.089 C312.23,16.589 312.519,17.72 313.1,18.48 C313.679,19.179 314.509,19.529 315.589,19.529 C316.71,19.529 317.54,19.179 318.079,18.48 C318.659,17.72 318.95,16.589 318.95,15.089 C318.95,14.77 319.109,14.609 319.429,14.609 C319.748,14.609 319.908,14.77 319.908,15.089 C319.908,16.21 319.778,17.114 319.518,17.804 C319.257,18.494 318.917,19.039 318.497,19.439 C318.077,19.839 317.612,20.11 317.102,20.25 C316.592,20.391 316.086,20.46 315.586,20.46 L315.586,20.46 Z" id="Shape"></path>
                <path d="M342.826,20.115 C342.786,20.245 342.717,20.34 342.616,20.4 C342.496,20.44 342.416,20.46 342.377,20.46 C342.196,20.46 342.057,20.381 341.957,20.22 L336.467,10.41 L334.426,13.47 L334.426,19.981 C334.426,20.121 334.381,20.235 334.291,20.326 C334.201,20.416 334.096,20.461 333.977,20.461 C333.657,20.461 333.497,20.302 333.497,19.982 L333.497,0.691 C333.497,0.572 333.542,0.466 333.632,0.377 C333.722,0.288 333.837,0.242 333.978,0.242 C334.097,0.242 334.203,0.287 334.292,0.377 C334.381,0.467 334.427,0.572 334.427,0.691 L334.427,11.732 L341.988,0.452 C342.068,0.332 342.173,0.262 342.302,0.242 C342.433,0.222 342.547,0.242 342.648,0.302 C342.748,0.382 342.813,0.488 342.843,0.617 C342.872,0.747 342.847,0.862 342.767,0.962 L337.068,9.542 L342.798,19.771 C342.856,19.87 342.866,19.985 342.826,20.115 L342.826,20.115 Z" id="Shape"></path>
                <path d="M366.256,19.891 C366.296,20.01 366.276,20.125 366.196,20.235 C366.115,20.346 366.015,20.421 365.896,20.461 L365.775,20.461 C365.536,20.461 365.386,20.341 365.326,20.101 L363.976,14.281 L358.665,14.281 L357.315,20.101 C357.274,20.221 357.2,20.322 357.09,20.402 C356.979,20.481 356.864,20.502 356.744,20.462 C356.603,20.422 356.499,20.348 356.43,20.236 C356.36,20.127 356.344,20.011 356.385,19.892 L360.854,0.601 C360.915,0.361 361.065,0.242 361.305,0.242 C361.565,0.242 361.725,0.361 361.784,0.601 L366.256,19.891 L366.256,19.891 Z M363.766,13.35 L361.307,2.79 L358.876,13.35 L363.766,13.35 L363.766,13.35 Z" id="Shape"></path>
                <path d="M389.762,0.345 C389.852,0.436 389.897,0.54 389.897,0.66 C389.897,0.98 389.737,1.14 389.417,1.14 L385.067,1.14 L385.067,19.95 C385.067,20.09 385.016,20.205 384.917,20.295 C384.818,20.385 384.707,20.43 384.587,20.43 C384.267,20.43 384.108,20.27 384.108,19.951 L384.108,1.141 L379.728,1.141 C379.608,1.141 379.503,1.095 379.413,1.005 C379.323,0.915 379.278,0.801 379.278,0.66 C379.278,0.54 379.323,0.435 379.413,0.345 C379.504,0.255 379.608,0.21 379.728,0.21 L389.417,0.21 C389.557,0.21 389.672,0.255 389.762,0.345 L389.762,0.345 Z" id="Shape"></path>
                <path d="M410.955,0.24 C411.096,0.24 411.211,0.285 411.301,0.375 C411.391,0.465 411.436,0.57 411.436,0.689 L411.436,19.98 C411.436,20.3 411.276,20.459 410.956,20.459 C410.636,20.459 410.477,20.3 410.477,19.98 L410.477,10.83 L404.357,10.83 L404.357,19.98 C404.357,20.3 404.197,20.459 403.877,20.459 C403.558,20.459 403.398,20.3 403.398,19.98 L403.398,0.689 C403.398,0.57 403.443,0.464 403.534,0.375 C403.624,0.285 403.738,0.24 403.878,0.24 C404.019,0.24 404.134,0.285 404.224,0.375 C404.314,0.465 404.359,0.57 404.359,0.689 L404.359,9.87 L410.479,9.87 L410.479,0.689 C410.479,0.57 410.524,0.464 410.615,0.375 C410.701,0.285 410.815,0.24 410.955,0.24 L410.955,0.24 Z" id="Shape"></path>
                <path d="M429.885,20.46 C429.406,20.46 428.91,20.391 428.401,20.25 C427.891,20.11 427.426,19.84 427.006,19.439 C426.586,19.04 426.245,18.495 425.985,17.804 C425.724,17.115 425.595,16.21 425.595,15.089 L425.595,5.579 C425.595,3.859 425.945,2.539 426.645,1.619 C427.384,0.699 428.464,0.239 429.884,0.239 C431.324,0.239 432.405,0.699 433.124,1.619 C433.845,2.518 434.204,3.839 434.204,5.579 L434.204,15.089 C434.204,16.21 434.074,17.114 433.814,17.804 C433.553,18.494 433.213,19.039 432.793,19.439 C432.373,19.839 431.908,20.11 431.398,20.25 C430.891,20.391 430.385,20.46 429.885,20.46 L429.885,20.46 Z M429.885,1.17 C428.746,1.17 427.915,1.52 427.396,2.22 C426.815,2.96 426.526,4.08 426.526,5.58 L426.526,15.09 C426.526,16.611 426.815,17.74 427.396,18.481 C427.936,19.18 428.766,19.53 429.885,19.53 C430.985,19.53 431.825,19.18 432.406,18.481 C432.966,17.781 433.247,16.651 433.247,15.09 L433.247,5.58 C433.247,4.04 432.966,2.92 432.406,2.22 C431.846,1.52 431.006,1.17 429.885,1.17 L429.885,1.17 Z" id="Shape"></path>
                <path d="M456.225,20.46 C456.006,20.46 455.866,20.36 455.805,20.16 L448.936,3.15 L448.936,19.98 C448.936,20.3 448.776,20.459 448.456,20.459 C448.136,20.459 447.976,20.3 447.976,19.98 L447.976,0.689 C447.976,0.429 448.107,0.28 448.367,0.24 C448.627,0.2 448.806,0.3 448.908,0.54 L455.748,17.55 L455.748,0.69 C455.748,0.571 455.793,0.465 455.883,0.376 C455.973,0.287 456.088,0.241 456.227,0.241 C456.368,0.241 456.483,0.286 456.573,0.376 C456.663,0.466 456.708,0.571 456.708,0.69 L456.708,19.981 C456.708,20.241 456.577,20.401 456.317,20.46 L456.225,20.46 L456.225,20.46 Z" id="Shape"></path>
            </g>
        </g>
    </g>
</svg>